<svg xmlns="http://www.w3.org/2000/svg" xmlns:xlink="http://www.w3.org/1999/xlink" width="700" zoomAndPan="magnify" viewBox="0 0 525 239.999995" height="320" preserveAspectRatio="xMidYMid meet" version="1.0"><defs><g/><clipPath id="c4f94b52ea"><path d="M 341.148438 95.425781 L 390.300781 95.425781 L 390.300781 144.574219 L 341.148438 144.574219 Z M 341.148438 95.425781 " clip-rule="nonzero"/></clipPath><clipPath id="b3717d7f74"><path d="M 365.722656 95.425781 C 352.152344 95.425781 341.148438 106.425781 341.148438 120 C 341.148438 133.574219 352.152344 144.574219 365.722656 144.574219 C 379.296875 144.574219 390.300781 133.574219 390.300781 120 C 390.300781 106.425781 379.296875 95.425781 365.722656 95.425781 " clip-rule="nonzero"/></clipPath></defs><g fill="#000000" fill-opacity="1"><g transform="translate(130.354685, 146.249991)"><g><path d="M 31.875 -52.5 L 31.875 -46.875 L 13.125 -46.875 L 13.125 -30 L 31.125 -30 L 31.125 -24.375 L 13.125 -24.375 L 13.125 0 L 7.125 0 L 7.125 -52.5 Z M 31.875 -52.5 "/></g></g></g><g fill="#000000" fill-opacity="1"><g transform="translate(162.829648, 146.249991)"><g><path d="M 31.203125 0.75 C 26.253906 0.75 21.703125 -0.445312 17.546875 -2.84375 C 13.398438 -5.25 10.125 -8.523438 7.71875 -12.671875 C 5.320312 -16.828125 4.125 -21.351562 4.125 -26.25 C 4.125 -31.144531 5.320312 -35.664062 7.71875 -39.8125 C 10.125 -43.96875 13.398438 -47.242188 17.546875 -49.640625 C 21.703125 -52.046875 26.253906 -53.25 31.203125 -53.25 C 36.148438 -53.25 40.695312 -52.046875 44.84375 -49.640625 C 49 -47.242188 52.273438 -43.96875 54.671875 -39.8125 C 57.078125 -35.664062 58.28125 -31.144531 58.28125 -26.25 C 58.28125 -21.351562 57.078125 -16.828125 54.671875 -12.671875 C 52.273438 -8.523438 49 -5.25 44.84375 -2.84375 C 40.695312 -0.445312 36.148438 0.75 31.203125 0.75 Z M 31.203125 -4.875 C 35.003906 -4.875 38.488281 -5.820312 41.65625 -7.71875 C 44.832031 -9.625 47.359375 -12.203125 49.234375 -15.453125 C 51.109375 -18.703125 52.046875 -22.300781 52.046875 -26.25 C 52.046875 -30.195312 51.109375 -33.796875 49.234375 -37.046875 C 47.359375 -40.296875 44.832031 -42.867188 41.65625 -44.765625 C 38.488281 -46.671875 35.003906 -47.625 31.203125 -47.625 C 27.398438 -47.625 23.910156 -46.671875 20.734375 -44.765625 C 17.554688 -42.867188 15.03125 -40.296875 13.15625 -37.046875 C 11.28125 -33.796875 10.34375 -30.195312 10.34375 -26.25 C 10.34375 -22.300781 11.28125 -18.703125 13.15625 -15.453125 C 15.03125 -12.203125 17.554688 -9.625 20.734375 -7.71875 C 23.910156 -5.820312 27.398438 -4.875 31.203125 -4.875 Z M 31.203125 -4.875 "/></g></g></g><g fill="#000000" fill-opacity="1"><g transform="translate(222.079587, 146.249991)"><g><path d="M 31.203125 0.75 C 26.253906 0.75 21.703125 -0.445312 17.546875 -2.84375 C 13.398438 -5.25 10.125 -8.523438 7.71875 -12.671875 C 5.320312 -16.828125 4.125 -21.351562 4.125 -26.25 C 4.125 -31.144531 5.320312 -35.664062 7.71875 -39.8125 C 10.125 -43.96875 13.398438 -47.242188 17.546875 -49.640625 C 21.703125 -52.046875 26.253906 -53.25 31.203125 -53.25 C 36.148438 -53.25 40.695312 -52.046875 44.84375 -49.640625 C 49 -47.242188 52.273438 -43.96875 54.671875 -39.8125 C 57.078125 -35.664062 58.28125 -31.144531 58.28125 -26.25 C 58.28125 -21.351562 57.078125 -16.828125 54.671875 -12.671875 C 52.273438 -8.523438 49 -5.25 44.84375 -2.84375 C 40.695312 -0.445312 36.148438 0.75 31.203125 0.75 Z M 31.203125 -4.875 C 35.003906 -4.875 38.488281 -5.820312 41.65625 -7.71875 C 44.832031 -9.625 47.359375 -12.203125 49.234375 -15.453125 C 51.109375 -18.703125 52.046875 -22.300781 52.046875 -26.25 C 52.046875 -30.195312 51.109375 -33.796875 49.234375 -37.046875 C 47.359375 -40.296875 44.832031 -42.867188 41.65625 -44.765625 C 38.488281 -46.671875 35.003906 -47.625 31.203125 -47.625 C 27.398438 -47.625 23.910156 -46.671875 20.734375 -44.765625 C 17.554688 -42.867188 15.03125 -40.296875 13.15625 -37.046875 C 11.28125 -33.796875 10.34375 -30.195312 10.34375 -26.25 C 10.34375 -22.300781 11.28125 -18.703125 13.15625 -15.453125 C 15.03125 -12.203125 17.554688 -9.625 20.734375 -7.71875 C 23.910156 -5.820312 27.398438 -4.875 31.203125 -4.875 Z M 31.203125 -4.875 "/></g></g></g><g fill="#000000" fill-opacity="1"><g transform="translate(281.329526, 146.249991)"><g><path d="M 7.125 0 L 7.125 -52.5 L 21 -52.5 C 26.851562 -52.5 31.953125 -51.410156 36.296875 -49.234375 C 40.648438 -47.054688 44.015625 -43.976562 46.390625 -40 C 48.765625 -36.03125 49.953125 -31.445312 49.953125 -26.25 C 49.953125 -21.050781 48.765625 -16.460938 46.390625 -12.484375 C 44.015625 -8.515625 40.648438 -5.441406 36.296875 -3.265625 C 31.953125 -1.085938 26.851562 0 21 0 Z M 21 -5.625 C 25.644531 -5.625 29.679688 -6.472656 33.109375 -8.171875 C 36.535156 -9.867188 39.160156 -12.28125 40.984375 -15.40625 C 42.804688 -18.53125 43.71875 -22.144531 43.71875 -26.25 C 43.71875 -30.351562 42.804688 -33.96875 40.984375 -37.09375 C 39.160156 -40.21875 36.535156 -42.628906 33.109375 -44.328125 C 29.679688 -46.023438 25.644531 -46.875 21 -46.875 L 13.125 -46.875 L 13.125 -5.625 Z M 21 -5.625 "/></g></g></g><g fill="#000000" fill-opacity="1"><g transform="translate(332.254473, 146.249991)"><g><path d="M 31.203125 0.75 C 26.253906 0.75 21.703125 -0.445312 17.546875 -2.84375 C 13.398438 -5.25 10.125 -8.523438 7.71875 -12.671875 C 5.320312 -16.828125 4.125 -21.351562 4.125 -26.25 C 4.125 -31.144531 5.320312 -35.664062 7.71875 -39.8125 C 10.125 -43.96875 13.398438 -47.242188 17.546875 -49.640625 C 21.703125 -52.046875 26.253906 -53.25 31.203125 -53.25 C 36.148438 -53.25 40.695312 -52.046875 44.84375 -49.640625 C 49 -47.242188 52.273438 -43.96875 54.671875 -39.8125 C 57.078125 -35.664062 58.28125 -31.144531 58.28125 -26.25 C 58.28125 -21.351562 57.078125 -16.828125 54.671875 -12.671875 C 52.273438 -8.523438 49 -5.25 44.84375 -2.84375 C 40.695312 -0.445312 36.148438 0.75 31.203125 0.75 Z M 31.203125 -4.875 C 35.003906 -4.875 38.488281 -5.820312 41.65625 -7.71875 C 44.832031 -9.625 47.359375 -12.203125 49.234375 -15.453125 C 51.109375 -18.703125 52.046875 -22.300781 52.046875 -26.25 C 52.046875 -30.195312 51.109375 -33.796875 49.234375 -37.046875 C 47.359375 -40.296875 44.832031 -42.867188 41.65625 -44.765625 C 38.488281 -46.671875 35.003906 -47.625 31.203125 -47.625 C 27.398438 -47.625 23.910156 -46.671875 20.734375 -44.765625 C 17.554688 -42.867188 15.03125 -40.296875 13.15625 -37.046875 C 11.28125 -33.796875 10.34375 -30.195312 10.34375 -26.25 C 10.34375 -22.300781 11.28125 -18.703125 13.15625 -15.453125 C 15.03125 -12.203125 17.554688 -9.625 20.734375 -7.71875 C 23.910156 -5.820312 27.398438 -4.875 31.203125 -4.875 Z M 31.203125 -4.875 "/></g></g></g><g clip-path="url(#c4f94b52ea)"><g clip-path="url(#b3717d7f74)"><path fill="#000000" d="M 341.148438 95.425781 L 390.300781 95.425781 L 390.300781 144.574219 L 341.148438 144.574219 Z M 341.148438 95.425781 " fill-opacity="1" fill-rule="nonzero"/></g></g></svg>